<svg width="198" height="80" viewBox="0 0 198 80" fill="none" xmlns="http://www.w3.org/2000/svg">
<g filter="url(#filter0_d_21_60)">
<rect x="2" width="194" height="76" rx="32.5" fill="#D52D76"/>
<path d="M43.42 30.47C42.388 30.47 41.41 30.668 40.486 31.064C39.574 31.448 38.77 31.994 38.074 32.702C37.378 33.41 36.832 34.226 36.436 35.15C36.052 36.074 35.86 37.052 35.86 38.084C35.86 39.116 36.052 40.094 36.436 41.018C36.832 41.942 37.378 42.758 38.074 43.466C38.77 44.162 39.58 44.708 40.504 45.104C41.428 45.488 42.4 45.68 43.42 45.68C44.452 45.68 45.43 45.494 46.354 45.122C47.278 44.75 48.082 44.222 48.766 43.538C49.462 42.854 50.002 42.044 50.386 41.108C50.782 40.16 50.98 39.14 50.98 38.048C50.98 36.992 50.812 36.008 50.476 35.096C50.14 34.172 49.648 33.362 49 32.666C48.352 31.97 47.554 31.43 46.606 31.046C45.658 30.662 44.596 30.47 43.42 30.47ZM43.42 31.37C44.248 31.37 45.016 31.538 45.724 31.874C46.444 32.198 47.062 32.684 47.578 33.332C48.106 33.968 48.514 34.742 48.802 35.654C49.102 36.566 49.252 37.586 49.252 38.714C49.252 39.626 49.108 40.46 48.82 41.216C48.532 41.96 48.118 42.602 47.578 43.142C47.05 43.67 46.432 44.078 45.724 44.366C45.016 44.642 44.248 44.78 43.42 44.78C42.616 44.78 41.866 44.588 41.17 44.204C40.474 43.82 39.868 43.286 39.352 42.602C38.848 41.918 38.452 41.15 38.164 40.298C37.888 39.434 37.75 38.54 37.75 37.616C37.75 36.704 37.888 35.864 38.164 35.096C38.44 34.316 38.83 33.65 39.334 33.098C39.85 32.546 40.456 32.12 41.152 31.82C41.848 31.52 42.604 31.37 43.42 31.37ZM54.2315 30.74C53.9435 30.74 53.6255 30.734 53.2775 30.722C52.9295 30.698 52.5815 30.668 52.2335 30.632V30.794C52.6535 31.022 52.9355 31.286 53.0795 31.586C53.2355 31.886 53.3255 32.252 53.3495 32.684C53.3975 33.584 53.4335 34.514 53.4575 35.474C53.4815 36.434 53.4935 37.376 53.4935 38.3C53.4935 40.724 53.4815 42.542 53.4575 43.754C53.4455 44.09 53.3135 44.396 53.0615 44.672C52.8215 44.936 52.5275 45.158 52.1795 45.338V45.5C52.4555 45.476 52.7915 45.458 53.1875 45.446C53.5835 45.422 53.9435 45.41 54.2675 45.41C54.8435 45.41 55.5215 45.44 56.3015 45.5V45.356C55.9295 45.188 55.6655 44.984 55.5095 44.744C55.3535 44.504 55.2575 44.138 55.2215 43.646C55.1255 42.278 55.0775 40.478 55.0775 38.246C55.0775 36.41 55.0835 35.21 55.0955 34.646C55.0955 34.166 55.1015 33.794 55.1135 33.53C55.1255 33.266 55.1375 33.008 55.1495 32.756C55.1495 32.696 55.1555 32.57 55.1675 32.378C55.1795 31.946 55.2275 31.64 55.3115 31.46C55.3835 31.448 55.4975 31.436 55.6535 31.424C56.0495 31.388 56.3615 31.37 56.5895 31.37C57.0095 31.37 57.4175 31.412 57.8135 31.496C58.2215 31.58 58.5755 31.724 58.8755 31.928C59.3075 32.216 59.6495 32.594 59.9015 33.062C60.1535 33.518 60.2795 33.992 60.2795 34.484C60.2795 35.084 60.2135 35.63 60.0815 36.122C59.9615 36.602 59.7515 37.004 59.4515 37.328C59.1395 37.664 58.7375 37.928 58.2455 38.12C57.7535 38.3 57.2675 38.396 56.7875 38.408C56.6315 38.408 56.3855 38.372 56.0495 38.3C55.7135 38.24 55.4675 38.21 55.3115 38.21C55.2395 38.21 55.2035 38.27 55.2035 38.39C55.2035 38.486 55.2575 38.57 55.3655 38.642C55.4855 38.714 55.6355 38.774 55.8155 38.822C55.9955 38.858 56.1755 38.888 56.3555 38.912C56.5475 38.924 56.7155 38.93 56.8595 38.93C57.5195 38.93 58.1075 38.882 58.6235 38.786C59.1515 38.69 59.6495 38.48 60.1175 38.156C60.6695 37.772 61.1315 37.256 61.5035 36.608C61.8875 35.948 62.0795 35.282 62.0795 34.61C62.0795 33.974 61.9235 33.35 61.6115 32.738C61.2995 32.126 60.8555 31.646 60.2795 31.298C59.9195 31.07 59.4815 30.896 58.9655 30.776C58.4495 30.644 57.9875 30.578 57.5795 30.578C57.2315 30.578 56.7095 30.602 56.0135 30.65C55.2335 30.71 54.6395 30.74 54.2315 30.74ZM66.9367 45.356C67.2367 45.356 67.7767 45.356 68.5567 45.356C69.1327 45.368 69.7987 45.374 70.5547 45.374H73.2727C73.6687 45.374 73.9327 45.314 74.0647 45.194C74.1967 45.074 74.2927 44.906 74.3527 44.69V44.654C74.4127 44.414 74.5867 44.042 74.8747 43.538C75.0187 43.286 75.1207 43.094 75.1807 42.962C75.2527 42.818 75.2887 42.692 75.2887 42.584C75.2887 42.476 75.2347 42.422 75.1267 42.422C75.0667 42.422 74.9047 42.578 74.6407 42.89C74.2327 43.394 73.8787 43.772 73.5787 44.024C73.2427 44.288 72.8767 44.462 72.4807 44.546C72.0847 44.618 71.6107 44.654 71.0587 44.654C70.6987 44.654 70.3447 44.636 69.9967 44.6C69.6487 44.552 69.3187 44.474 69.0067 44.366C68.6947 44.246 68.4307 44.084 68.2147 43.88C68.0107 43.664 67.9027 43.394 67.8907 43.07C67.8427 42.05 67.8067 41.198 67.7827 40.514C67.7587 39.818 67.7467 39.044 67.7467 38.192V38.138C69.1027 38.138 70.0867 38.162 70.6987 38.21C71.1787 38.246 71.6047 38.336 71.9767 38.48C72.3607 38.624 72.6367 38.864 72.8047 39.2H72.9307C72.9067 38.852 72.8947 38.618 72.8947 38.498C72.8947 38.378 72.8947 38.156 72.8947 37.832C72.8947 37.64 72.9007 37.472 72.9127 37.328C72.9247 37.172 72.9427 36.998 72.9667 36.806C72.9907 36.638 73.0087 36.47 73.0207 36.302H72.8947C72.6307 36.698 72.3307 36.968 71.9947 37.112C71.6707 37.244 71.2927 37.322 70.8607 37.346C70.8247 37.346 70.7107 37.346 70.5187 37.346C70.3867 37.358 70.2667 37.364 70.1587 37.364C69.9427 37.364 69.5527 37.352 68.9887 37.328C68.4727 37.316 68.0587 37.31 67.7467 37.31C67.7467 35.906 67.7527 34.91 67.7647 34.322C67.7767 33.734 67.7947 33.194 67.8187 32.702L67.8367 32.378C67.8607 31.934 67.9027 31.616 67.9627 31.424C68.2027 31.412 68.5567 31.388 69.0247 31.352C69.5527 31.304 69.9367 31.28 70.1767 31.28C71.0887 31.28 71.7847 31.37 72.2647 31.55C72.7447 31.73 73.0747 31.952 73.2547 32.216C73.2907 32.276 73.3327 32.36 73.3807 32.468C73.4647 32.636 73.5427 32.72 73.6147 32.72C73.6867 32.72 73.7227 32.666 73.7227 32.558C73.7227 32.39 73.7047 32.156 73.6687 31.856C73.6087 31.472 73.5787 31.148 73.5787 30.884C73.5787 30.728 73.4107 30.626 73.0747 30.578C72.7507 30.53 72.3307 30.506 71.8147 30.506C71.4187 30.506 70.7827 30.536 69.9067 30.596L69.4027 30.632C68.9107 30.656 68.4967 30.674 68.1607 30.686C67.8247 30.698 67.5607 30.704 67.3687 30.704C67.1287 30.704 66.7627 30.686 66.2707 30.65C65.7907 30.614 65.2747 30.572 64.7227 30.524L64.5967 30.506L64.6327 30.704C65.1007 30.944 65.4427 31.232 65.6587 31.568C65.8747 31.904 65.9947 32.258 66.0187 32.63C66.0667 33.53 66.1027 34.46 66.1267 35.42C66.1507 36.38 66.1627 37.322 66.1627 38.246C66.1627 39.35 66.1627 40.202 66.1627 40.802C66.1627 41.402 66.1507 42.164 66.1267 43.088C66.1267 43.268 66.0847 43.466 66.0007 43.682C65.9167 43.898 65.8087 44.114 65.6767 44.33C65.5447 44.534 65.4007 44.714 65.2447 44.87C65.0887 45.026 64.9387 45.14 64.7947 45.212V45.5L64.9567 45.482C65.4007 45.446 65.7787 45.416 66.0907 45.392C66.4147 45.368 66.6967 45.356 66.9367 45.356ZM87.585 30.434V30.578C87.981 30.842 88.233 31.13 88.341 31.442C88.449 31.742 88.515 32.132 88.539 32.612C88.587 33.512 88.623 34.442 88.647 35.402C88.671 36.362 88.683 37.304 88.683 38.228C88.683 40.016 88.677 41.36 88.665 42.26H88.521L78.603 30.542C78.339 30.53 78.075 30.512 77.811 30.488C77.547 30.464 77.211 30.434 76.803 30.398L76.857 30.56C77.241 30.812 77.511 31.1 77.667 31.424C77.823 31.736 77.919 32.084 77.955 32.468V32.594C77.979 33.11 77.991 33.734 77.991 34.466C77.991 34.97 77.985 35.618 77.973 36.41C77.961 37.334 77.955 37.946 77.955 38.246C77.955 40.67 77.943 42.488 77.919 43.7C77.907 44.06 77.805 44.378 77.613 44.654C77.421 44.93 77.175 45.146 76.875 45.302V45.446C77.007 45.434 77.109 45.422 77.181 45.41C77.361 45.398 77.499 45.392 77.595 45.392C77.691 45.38 77.865 45.374 78.117 45.374C78.693 45.374 79.371 45.404 80.151 45.464V45.32C79.803 45.164 79.539 44.942 79.359 44.654C79.191 44.354 79.095 44.006 79.071 43.61C78.975 41.69 78.927 39.89 78.927 38.21C78.927 37.838 78.927 37.448 78.927 37.04C78.915 36.464 78.909 36.026 78.909 35.726C78.909 34.994 78.921 34.358 78.945 33.818H79.053L88.989 45.302C89.277 45.65 89.457 45.824 89.529 45.824C89.637 45.824 89.691 45.71 89.691 45.482C89.691 45.398 89.685 45.212 89.673 44.924C89.661 44.828 89.655 44.726 89.655 44.618C89.631 44.102 89.619 43.412 89.619 42.548C89.619 41.996 89.625 41.198 89.637 40.154C89.649 39.206 89.655 38.558 89.655 38.21C89.655 36.374 89.661 35.174 89.673 34.61C89.673 34.13 89.679 33.758 89.691 33.494C89.703 33.23 89.715 32.972 89.727 32.72C89.763 32.24 89.853 31.814 89.997 31.442C90.141 31.058 90.381 30.782 90.717 30.614V30.488C90.561 30.5 90.339 30.512 90.051 30.524C89.511 30.572 89.097 30.596 88.809 30.596C88.653 30.596 88.419 30.566 88.107 30.506C87.879 30.47 87.705 30.446 87.585 30.434ZM114.681 32.72C114.681 32.696 114.675 32.654 114.663 32.594C114.663 32.534 114.663 32.486 114.663 32.45C114.663 32.102 114.759 31.748 114.951 31.388C115.143 31.028 115.395 30.77 115.707 30.614V30.488C115.551 30.5 115.359 30.512 115.131 30.524C114.603 30.56 114.207 30.578 113.943 30.578L113.061 32.684L109.029 42.242L108.705 42.224L103.359 30.578C102.711 30.578 102.123 30.554 101.595 30.506V30.632C102.339 31.136 102.711 31.736 102.711 32.432L101.271 43.07C101.199 43.634 101.031 44.132 100.767 44.564C100.503 44.984 100.167 45.26 99.7586 45.392L99.6686 45.5C100.197 45.428 100.731 45.392 101.271 45.392C101.559 45.392 101.913 45.404 102.333 45.428C102.765 45.44 103.089 45.464 103.305 45.5L103.251 45.356C102.903 45.212 102.651 45.02 102.495 44.78C102.339 44.528 102.261 44.222 102.261 43.862C102.261 43.694 102.267 43.568 102.279 43.484L103.359 35.24L103.521 35.186C105.489 39.278 106.533 41.45 106.653 41.702C107.013 42.446 107.283 43.01 107.463 43.394C107.643 43.766 107.805 44.114 107.949 44.438C108.105 44.762 108.213 44.978 108.273 45.086C108.333 45.194 108.381 45.278 108.417 45.338C108.525 45.506 108.603 45.59 108.651 45.59C108.711 45.59 108.765 45.524 108.813 45.392L113.115 35.06H113.223L114.465 44.186C114.465 44.21 114.465 44.24 114.465 44.276C114.477 44.3 114.483 44.324 114.483 44.348C114.483 44.552 114.435 44.708 114.339 44.816C114.255 44.924 114.135 45.026 113.979 45.122C113.799 45.23 113.709 45.326 113.709 45.41V45.518C114.417 45.41 115.125 45.356 115.833 45.356C116.493 45.356 117.153 45.41 117.813 45.518V45.392C117.417 45.224 117.075 44.984 116.787 44.672C116.511 44.348 116.337 43.97 116.265 43.538L114.681 32.72ZM122.67 45.356C122.97 45.356 123.51 45.356 124.29 45.356C124.866 45.368 125.532 45.374 126.288 45.374H129.006C129.402 45.374 129.666 45.314 129.798 45.194C129.93 45.074 130.026 44.906 130.086 44.69V44.654C130.146 44.414 130.32 44.042 130.608 43.538C130.752 43.286 130.854 43.094 130.914 42.962C130.986 42.818 131.022 42.692 131.022 42.584C131.022 42.476 130.968 42.422 130.86 42.422C130.8 42.422 130.638 42.578 130.374 42.89C129.966 43.394 129.612 43.772 129.312 44.024C128.976 44.288 128.61 44.462 128.214 44.546C127.818 44.618 127.344 44.654 126.792 44.654C126.432 44.654 126.078 44.636 125.73 44.6C125.382 44.552 125.052 44.474 124.74 44.366C124.428 44.246 124.164 44.084 123.948 43.88C123.744 43.664 123.636 43.394 123.624 43.07C123.576 42.05 123.54 41.198 123.516 40.514C123.492 39.818 123.48 39.044 123.48 38.192V38.138C124.836 38.138 125.82 38.162 126.432 38.21C126.912 38.246 127.338 38.336 127.71 38.48C128.094 38.624 128.37 38.864 128.538 39.2H128.664C128.64 38.852 128.628 38.618 128.628 38.498C128.628 38.378 128.628 38.156 128.628 37.832C128.628 37.64 128.634 37.472 128.646 37.328C128.658 37.172 128.676 36.998 128.7 36.806C128.724 36.638 128.742 36.47 128.754 36.302H128.628C128.364 36.698 128.064 36.968 127.728 37.112C127.404 37.244 127.026 37.322 126.594 37.346C126.558 37.346 126.444 37.346 126.252 37.346C126.12 37.358 126 37.364 125.892 37.364C125.676 37.364 125.286 37.352 124.722 37.328C124.206 37.316 123.792 37.31 123.48 37.31C123.48 35.906 123.486 34.91 123.498 34.322C123.51 33.734 123.528 33.194 123.552 32.702L123.57 32.378C123.594 31.934 123.636 31.616 123.696 31.424C123.936 31.412 124.29 31.388 124.758 31.352C125.286 31.304 125.67 31.28 125.91 31.28C126.822 31.28 127.518 31.37 127.998 31.55C128.478 31.73 128.808 31.952 128.988 32.216C129.024 32.276 129.066 32.36 129.114 32.468C129.198 32.636 129.276 32.72 129.348 32.72C129.42 32.72 129.456 32.666 129.456 32.558C129.456 32.39 129.438 32.156 129.402 31.856C129.342 31.472 129.312 31.148 129.312 30.884C129.312 30.728 129.144 30.626 128.808 30.578C128.484 30.53 128.064 30.506 127.548 30.506C127.152 30.506 126.516 30.536 125.64 30.596L125.136 30.632C124.644 30.656 124.23 30.674 123.894 30.686C123.558 30.698 123.294 30.704 123.102 30.704C122.862 30.704 122.496 30.686 122.004 30.65C121.524 30.614 121.008 30.572 120.456 30.524L120.33 30.506L120.366 30.704C120.834 30.944 121.176 31.232 121.392 31.568C121.608 31.904 121.728 32.258 121.752 32.63C121.8 33.53 121.836 34.46 121.86 35.42C121.884 36.38 121.896 37.322 121.896 38.246C121.896 39.35 121.896 40.202 121.896 40.802C121.896 41.402 121.884 42.164 121.86 43.088C121.86 43.268 121.818 43.466 121.734 43.682C121.65 43.898 121.542 44.114 121.41 44.33C121.278 44.534 121.134 44.714 120.978 44.87C120.822 45.026 120.672 45.14 120.528 45.212V45.5L120.69 45.482C121.134 45.446 121.512 45.416 121.824 45.392C122.148 45.368 122.43 45.356 122.67 45.356ZM143.318 30.434V30.578C143.714 30.842 143.966 31.13 144.074 31.442C144.182 31.742 144.248 32.132 144.272 32.612C144.32 33.512 144.356 34.442 144.38 35.402C144.404 36.362 144.416 37.304 144.416 38.228C144.416 40.016 144.41 41.36 144.398 42.26H144.254L134.336 30.542C134.072 30.53 133.808 30.512 133.544 30.488C133.28 30.464 132.944 30.434 132.536 30.398L132.59 30.56C132.974 30.812 133.244 31.1 133.4 31.424C133.556 31.736 133.652 32.084 133.688 32.468V32.594C133.712 33.11 133.724 33.734 133.724 34.466C133.724 34.97 133.718 35.618 133.706 36.41C133.694 37.334 133.688 37.946 133.688 38.246C133.688 40.67 133.676 42.488 133.652 43.7C133.64 44.06 133.538 44.378 133.346 44.654C133.154 44.93 132.908 45.146 132.608 45.302V45.446C132.74 45.434 132.842 45.422 132.914 45.41C133.094 45.398 133.232 45.392 133.328 45.392C133.424 45.38 133.598 45.374 133.85 45.374C134.426 45.374 135.104 45.404 135.884 45.464V45.32C135.536 45.164 135.272 44.942 135.092 44.654C134.924 44.354 134.828 44.006 134.804 43.61C134.708 41.69 134.66 39.89 134.66 38.21C134.66 37.838 134.66 37.448 134.66 37.04C134.648 36.464 134.642 36.026 134.642 35.726C134.642 34.994 134.654 34.358 134.678 33.818H134.786L144.722 45.302C145.01 45.65 145.19 45.824 145.262 45.824C145.37 45.824 145.424 45.71 145.424 45.482C145.424 45.398 145.418 45.212 145.406 44.924C145.394 44.828 145.388 44.726 145.388 44.618C145.364 44.102 145.352 43.412 145.352 42.548C145.352 41.996 145.358 41.198 145.37 40.154C145.382 39.206 145.388 38.558 145.388 38.21C145.388 36.374 145.394 35.174 145.406 34.61C145.406 34.13 145.412 33.758 145.424 33.494C145.436 33.23 145.448 32.972 145.46 32.72C145.496 32.24 145.586 31.814 145.73 31.442C145.874 31.058 146.114 30.782 146.45 30.614V30.488C146.294 30.5 146.072 30.512 145.784 30.524C145.244 30.572 144.83 30.596 144.542 30.596C144.386 30.596 144.152 30.566 143.84 30.506C143.612 30.47 143.438 30.446 143.318 30.434ZM155.261 45.698C156.161 45.698 156.911 45.638 157.511 45.518C158.111 45.41 158.639 45.17 159.095 44.798C159.563 44.414 159.923 43.826 160.175 43.034C160.439 42.23 160.571 41.168 160.571 39.848C160.571 39.752 160.577 39.488 160.589 39.056C160.589 38.624 160.589 38.36 160.589 38.264C160.589 37.076 160.589 36.056 160.589 35.204C160.601 34.34 160.625 33.53 160.661 32.774C160.685 32.138 160.763 31.676 160.895 31.388C161.027 31.1 161.279 30.86 161.651 30.668V30.542C161.495 30.554 161.273 30.566 160.985 30.578C160.445 30.626 160.031 30.65 159.743 30.65C159.575 30.65 159.311 30.632 158.951 30.596C158.699 30.572 158.507 30.56 158.375 30.56V30.686C158.843 30.95 159.149 31.22 159.293 31.496C159.437 31.772 159.521 32.18 159.545 32.72C159.569 33.356 159.581 34.106 159.581 34.97C159.581 35.354 159.581 35.93 159.581 36.698C159.569 37.322 159.563 37.868 159.563 38.336C159.563 38.804 159.557 39.302 159.545 39.83C159.545 40.058 159.545 40.268 159.545 40.46C159.521 41.384 159.413 42.14 159.221 42.728C159.029 43.304 158.765 43.742 158.429 44.042C158.093 44.342 157.685 44.546 157.205 44.654C156.725 44.762 156.137 44.816 155.441 44.816C154.937 44.816 154.481 44.774 154.073 44.69C153.665 44.594 153.293 44.414 152.957 44.15C152.633 43.874 152.363 43.472 152.147 42.944C151.943 42.416 151.829 41.732 151.805 40.892C151.781 40.268 151.763 39.77 151.751 39.398C151.751 39.026 151.751 38.654 151.751 38.282C151.751 36.446 151.757 35.246 151.769 34.682C151.769 34.202 151.775 33.83 151.787 33.566C151.799 33.302 151.811 33.044 151.823 32.792C151.859 32.312 151.949 31.886 152.093 31.514C152.237 31.13 152.477 30.854 152.813 30.686V30.56C152.657 30.572 152.435 30.584 152.147 30.596C151.607 30.644 151.193 30.668 150.905 30.668C150.413 30.668 149.771 30.632 148.979 30.56V30.686C149.375 30.95 149.639 31.25 149.771 31.586C149.915 31.91 149.999 32.288 150.023 32.72C150.047 33.188 150.059 33.734 150.059 34.358C150.059 34.886 150.053 35.582 150.041 36.446C150.017 37.394 150.005 38.042 150.005 38.39C150.005 38.642 150.017 39.158 150.041 39.938C150.053 40.694 150.059 41.12 150.059 41.216C150.071 42.188 150.239 42.98 150.563 43.592C150.887 44.204 151.295 44.66 151.787 44.96C152.291 45.26 152.825 45.458 153.389 45.554C153.965 45.65 154.589 45.698 155.261 45.698Z" fill="white"/>
<rect x="7" y="5" width="184" height="66" rx="27.5" stroke="#D52D76" stroke-width="10"/>
</g>
<defs>
<filter id="filter0_d_21_60" x="0" y="0" width="198" height="80" filterUnits="userSpaceOnUse" color-interpolation-filters="sRGB">
<feFlood flood-opacity="0" result="BackgroundImageFix"/>
<feColorMatrix in="SourceAlpha" type="matrix" values="0 0 0 0 0 0 0 0 0 0 0 0 0 0 0 0 0 0 127 0" result="hardAlpha"/>
<feOffset dy="2"/>
<feGaussianBlur stdDeviation="1"/>
<feComposite in2="hardAlpha" operator="out"/>
<feColorMatrix type="matrix" values="0 0 0 0 0 0 0 0 0 0 0 0 0 0 0 0 0 0 0.25 0"/>
<feBlend mode="normal" in2="BackgroundImageFix" result="effect1_dropShadow_21_60"/>
<feBlend mode="normal" in="SourceGraphic" in2="effect1_dropShadow_21_60" result="shape"/>
</filter>
</defs>
</svg>
