<svg width="86" height="65" viewBox="0 0 86 65" fill="none" xmlns="http://www.w3.org/2000/svg">
<path fill-rule="evenodd" clip-rule="evenodd" d="M43.5 58.5C50.3956 58.5 57.0088 55.7607 61.8848 50.8848C66.7607 46.0088 69.5 39.3956 69.5 32.5C69.5 25.6044 66.7607 18.9912 61.8848 14.1152C57.0088 9.23928 50.3956 6.5 43.5 6.5C36.6044 6.5 29.9912 9.23928 25.1152 14.1152C20.2393 18.9912 17.5 25.6044 17.5 32.5C17.5 39.3956 20.2393 46.0088 25.1152 50.8848C29.9912 55.7607 36.6044 58.5 43.5 58.5ZM39.2977 23.7023C38.6848 23.1102 37.8638 22.7827 37.0117 22.7901C36.1596 22.7975 35.3444 23.1393 34.7418 23.7418C34.1393 24.3444 33.7975 25.1596 33.7901 26.0117C33.7827 26.8638 34.1102 27.6848 34.7023 28.2977L38.9045 32.5L34.7023 36.7023C34.3918 37.0021 34.1443 37.3607 33.9739 37.7572C33.8036 38.1537 33.7139 38.5802 33.7102 39.0117C33.7064 39.4432 33.7887 39.8712 33.9521 40.2706C34.1155 40.67 34.3568 41.0329 34.662 41.338C34.9671 41.6432 35.33 41.8845 35.7294 42.0479C36.1288 42.2113 36.5568 42.2936 36.9883 42.2898C37.4198 42.2861 37.8463 42.1964 38.2428 42.0261C38.6393 41.8558 38.9979 41.6082 39.2977 41.2977L43.5 37.0955L47.7023 41.2977C48.3152 41.8898 49.1362 42.2173 49.9883 42.2099C50.8404 42.2025 51.6556 41.8607 52.2582 41.2582C52.8607 40.6556 53.2025 39.8404 53.2099 38.9883C53.2173 38.1362 52.8898 37.3152 52.2977 36.7023L48.0955 32.5L52.2977 28.2977C52.8898 27.6848 53.2173 26.8638 53.2099 26.0117C53.2025 25.1596 52.8607 24.3444 52.2582 23.7418C51.6556 23.1393 50.8404 22.7975 49.9883 22.7901C49.1362 22.7827 48.3152 23.1102 47.7023 23.7023L43.5 27.9045L39.2977 23.7023Z" fill="#E95F9B"/>
</svg>
