<svg width="50" height="50" viewBox="0 0 50 50" fill="none" xmlns="http://www.w3.org/2000/svg">
<path d="M43.6397 17.3021C43.6187 15.7242 43.3233 14.162 42.7668 12.6854C42.2842 11.4399 41.5471 10.3087 40.6026 9.36423C39.6581 8.41972 38.5269 7.68261 37.2814 7.2C35.8238 6.65283 34.2838 6.35696 32.7272 6.325C30.7231 6.23542 30.0876 6.21042 25.0001 6.21042C19.9126 6.21042 19.2606 6.21042 17.271 6.325C15.7151 6.3572 14.1759 6.65306 12.7189 7.2C11.4732 7.68227 10.3419 8.41926 9.3973 9.36382C8.45274 10.3084 7.71575 11.4397 7.23348 12.6854C6.68521 14.1419 6.38999 15.6815 6.36056 17.2375C6.27098 19.2438 6.2439 19.8792 6.2439 24.9667C6.2439 30.0542 6.2439 30.7042 6.36056 32.6958C6.39181 34.2542 6.68556 35.7917 7.23348 37.2521C7.71656 38.4974 8.4541 39.6283 9.39897 40.5724C10.3438 41.5166 11.4753 42.2533 12.721 42.7354C14.174 43.3046 15.7134 43.6216 17.2731 43.6729C19.2793 43.7625 19.9147 43.7896 25.0022 43.7896C30.0897 43.7896 30.7418 43.7896 32.7314 43.6729C34.288 43.6423 35.828 43.3471 37.2856 42.8C38.5308 42.3168 39.6616 41.5795 40.6061 40.6351C41.5505 39.6906 42.2878 38.5598 42.771 37.3146C43.3189 35.8562 43.6126 34.3187 43.6439 32.7583C43.7335 30.7542 43.7606 30.1187 43.7606 25.0292C43.7564 19.9417 43.7564 19.2958 43.6397 17.3021V17.3021ZM24.9876 34.5875C19.6668 34.5875 15.3564 30.2771 15.3564 24.9562C15.3564 19.6354 19.6668 15.325 24.9876 15.325C27.542 15.325 29.9918 16.3397 31.798 18.1459C33.6042 19.9521 34.6189 22.4019 34.6189 24.9562C34.6189 27.5106 33.6042 29.9604 31.798 31.7666C29.9918 33.5728 27.542 34.5875 24.9876 34.5875V34.5875ZM35.0022 17.2146C34.7072 17.2149 34.4151 17.157 34.1425 17.0442C33.8699 16.9314 33.6222 16.766 33.4136 16.5574C33.205 16.3488 33.0396 16.1011 32.9268 15.8285C32.814 15.5559 32.7561 15.2638 32.7564 14.9688C32.7564 14.674 32.8145 14.3821 32.9273 14.1097C33.0401 13.8374 33.2054 13.5899 33.4139 13.3814C33.6223 13.173 33.8698 13.0076 34.1421 12.8948C34.4145 12.782 34.7064 12.724 35.0012 12.724C35.296 12.724 35.5879 12.782 35.8602 12.8948C36.1326 13.0076 36.38 13.173 36.5885 13.3814C36.7969 13.5899 36.9623 13.8374 37.0751 14.1097C37.1879 14.3821 37.246 14.674 37.246 14.9688C37.246 16.2104 36.2418 17.2146 35.0022 17.2146Z" fill="white"/>
<path d="M24.9875 31.2125C28.4427 31.2125 31.2437 28.4115 31.2437 24.9563C31.2437 21.501 28.4427 18.7 24.9875 18.7C21.5322 18.7 18.7312 21.501 18.7312 24.9563C18.7312 28.4115 21.5322 31.2125 24.9875 31.2125Z" fill="white"/>
</svg>
