<svg width="356" height="317" viewBox="0 0 356 317" fill="none" xmlns="http://www.w3.org/2000/svg">
<path d="M51.0334 181.831C48.9452 175.162 50.9159 154.276 52.342 151.684C56.7263 137.917 61.8563 131.06 76.1595 120.489C91.5448 111.876 100.079 106.868 114.634 96.634C130.623 83.3908 135.72 74.2958 138.19 55.2152C149.225 63.1294 156.213 67.0914 170.121 73.3032C194.841 84.5226 204.353 91.7149 210.166 106.858C207.023 111.235 203.799 113.264 196.032 116.295C180.487 119.248 170.569 114.406 152.061 101.353C137.06 106.397 128.258 109.644 111.755 116.295C85.7987 130.949 77.8101 140.182 73.8039 158.238C99.2045 157.358 118.355 154.958 164.101 146.179C207.408 133.763 227.73 125.361 239.218 101.353C231.373 89.0359 223.862 81.5887 207.548 67.7982C190.937 52.2866 183.901 44.2936 182.422 33.4573C183.937 19.948 190.833 14.9713 210.689 9.34003C201.174 34.1867 212.251 50.8223 255.183 84.3132C271.155 97.3763 278.549 105.055 282.927 120.751C282.763 128.311 276.925 134.763 261.988 148.014C261.125 156.278 262.717 159.033 269.84 160.073C284.611 150.442 290.686 147.71 298.107 146.966C311.098 148.852 316.991 151.059 326.112 156.141C346.572 170.842 350.941 181.658 347.836 204.9L298.107 219.58C276.177 224.548 265.432 226.034 246.808 228.23C247.931 221.455 250.631 218.003 260.941 212.764C271.597 211.101 279.325 209.266 295.228 204.9C306.395 195.817 306.538 190.944 303.865 182.355C257.137 181.033 232.032 184.17 189.751 198.608C148.732 213.553 130.339 224.003 103.379 245.27C158.802 248.248 189.733 248.629 244.452 245.27C283.43 240.684 304.804 237.326 341.031 228.23C346.344 238.904 348.285 245.118 347.836 257.066C345.89 266.309 344.087 271.407 335.535 279.873C337.715 280.877 339.752 281.034 343.648 281.183C349.613 280.073 352.497 279.086 354.903 275.154C355.438 281.526 353.863 284.56 347.836 289.048C335.395 295.073 327.454 297.952 312.502 302.679C290.34 307.916 276.701 310.62 247.331 314.476C249.889 310.201 252.145 307.577 261.727 301.369C278.931 292.414 289.133 287.566 310.408 279.873C324.714 271.33 329.631 265.207 332.655 251.823C304.835 249.829 287.835 253.511 257.015 261.785C213.877 278.016 187.299 288.312 137.404 307.922C122.499 312.762 113.45 314.702 94.4806 315C100.199 300.025 106.198 292.586 126.935 282.756C147.901 272.532 158.636 266.922 165.671 258.377C151.019 251.679 139.757 251.792 114.634 258.377C93.6016 268.672 78.8299 276.959 49.463 294.291C39.4076 297.108 33.5691 298.099 22.5047 297.961C22.6372 292.729 23.0093 289.643 23.8134 284.067C29.6025 265.361 37.4142 254.813 63.5964 235.833C92.4649 218.824 109.2 210.39 140.022 197.297C170.467 184.313 183.976 177.083 202.314 164.267C187.686 163.55 178.565 163.803 160.437 165.578C138.388 169.25 125.922 172.503 103.379 181.831C65.509 197.791 44.4318 209.411 7.06263 233.997C0.587978 224.989 -0.36235 219.881 2.61321 210.667C13.023 192.882 23.2839 186.307 51.0334 181.831Z" stroke="white" stroke-width="2"/>
<path d="M95.2658 101.353C101.84 97.8991 105.005 95.3189 109.923 89.8183C95.1186 70.6115 87.1843 60.354 69.878 37.6516C70.2419 30.9173 70.949 27.2387 74.5891 21.1365L111.755 87.9833C120.333 80.7688 123.009 76.3005 125.103 67.7982C104.266 46.1494 92.9037 32.3293 73.0187 5.67002L60.1939 19.5637C55.4105 13.6522 52.1558 9.69033 45.7987 2C42.0149 9.20997 40.2485 14.5284 37.6851 26.1173C43.3665 40.0524 46.5736 47.4365 52.342 59.6717C69.2104 78.7006 78.604 87.7082 95.2658 101.353Z" stroke="white" stroke-width="2"/>
</svg>
