<svg width="169" height="99" viewBox="0 0 169 99" fill="none" xmlns="http://www.w3.org/2000/svg">
<path d="M55.8936 37.6214C55.4807 36.3005 55.8704 32.1634 56.1524 31.6499C57.0193 28.9229 58.0337 27.5646 60.862 25.4707C63.9043 23.7647 65.5919 22.7727 68.47 20.7454C71.6317 18.1221 72.6396 16.3206 73.1279 12.541C75.31 14.1087 76.6919 14.8935 79.442 16.124C84.3302 18.3463 86.2111 19.771 87.3604 22.7705C86.7391 23.6376 86.1015 24.0394 84.5657 24.6399C81.4917 25.2249 79.5305 24.2658 75.8709 21.6801C72.9045 22.6793 71.164 23.3225 67.9007 24.6399C62.7681 27.5426 61.1884 29.3715 60.3963 32.9481C65.419 32.7738 69.2058 32.2985 78.2516 30.5595C86.8151 28.1001 90.8336 26.4356 93.1052 21.6801C91.5539 19.2403 90.0687 17.7652 86.8429 15.0335C83.5581 11.9609 82.1668 10.3776 81.8744 8.23116C82.1739 5.5552 83.5376 4.5694 87.4639 3.45394C85.5824 8.37564 87.7729 11.6709 96.2622 18.3049C99.4205 20.8924 100.883 22.4134 101.748 25.5226C101.716 27.0201 100.561 28.2981 97.6078 30.9229C97.4371 32.5598 97.7519 33.1057 99.1605 33.3116C102.081 31.4039 103.283 30.8626 104.75 30.7152C107.319 31.089 108.484 31.526 110.288 32.5327C114.333 35.4448 115.197 37.5873 114.583 42.191L104.75 45.0988C100.414 46.083 98.2888 46.3773 94.6061 46.8124C94.8282 45.4704 95.362 44.7865 97.4008 43.7487C99.508 43.4193 101.036 43.0558 104.181 42.191C106.389 40.3919 106.417 39.4265 105.889 37.7253C96.6485 37.4633 91.6844 38.0849 83.3236 40.9447C75.2126 43.9051 71.5755 45.975 66.2445 50.1876C77.2038 50.7775 83.32 50.853 94.1403 50.1876C101.848 49.2792 106.074 48.6141 113.238 46.8124C114.288 48.9267 114.672 50.1576 114.583 52.5243C114.199 54.3551 113.842 55.365 112.151 57.0419C112.582 57.2408 112.985 57.272 113.755 57.3015C114.935 57.0816 115.505 56.8861 115.981 56.1072C116.087 57.3694 115.775 57.9703 114.583 58.8593C112.123 60.0528 110.553 60.6231 107.596 61.5595C103.214 62.5968 100.517 63.1323 94.7096 63.8961C95.2153 63.0493 95.6615 62.5296 97.5561 61.2998C100.958 59.5261 102.975 58.5658 107.182 57.0419C110.011 55.3496 110.984 54.1368 111.582 51.4858C106.08 51.0907 102.719 51.8201 96.6245 53.459C88.0943 56.6741 82.8389 58.7136 72.9726 62.598C70.0252 63.5567 68.2358 63.941 64.4849 64C65.6157 61.0338 66.8019 59.5602 70.9024 57.6131C75.0483 55.5878 77.171 54.4766 78.5621 52.7839C75.6648 51.4571 73.4378 51.4795 68.47 52.7839C64.3111 54.8232 61.3901 56.4648 55.5831 59.8978C53.5947 60.4558 52.4402 60.6521 50.2523 60.6248C50.2785 59.5886 50.3521 58.9773 50.5111 57.8727C51.6559 54.1674 53.2005 52.0779 58.3778 48.3183C64.0863 44.9492 67.3954 43.2785 73.4902 40.6851C79.5105 38.1132 82.1816 36.681 85.8078 34.1424C82.9153 34.0004 81.1117 34.0504 77.527 34.402C73.1671 35.1293 70.7021 35.7738 66.2445 37.6214C58.756 40.7829 54.5882 43.0846 47.1988 47.9548C45.9185 46.1704 45.7306 45.1585 46.319 43.3333C48.3774 39.8106 50.4064 38.508 55.8936 37.6214Z" stroke="white" stroke-width="2"/>
<path d="M64.6401 21.6801C65.9401 20.996 66.5659 20.4849 67.5384 19.3953C64.611 15.5908 63.0421 13.5589 59.6199 9.06198C59.6919 7.72803 59.8317 6.99936 60.5515 5.79062L67.9007 19.0318C69.5969 17.6028 70.1262 16.7177 70.5402 15.0335C66.4199 10.7453 64.173 8.00771 60.241 2.72697L57.705 5.47906C56.7591 4.3081 56.1155 3.52332 54.8585 2C54.1103 3.42817 53.761 4.48166 53.2541 6.77722C54.3776 9.53754 55.0117 11.0002 56.1524 13.4238C59.4879 17.1931 61.3454 18.9773 64.6401 21.6801Z" stroke="white" stroke-width="2"/>
<path d="M8.56442 83.1759C8.40105 83.1101 8.15498 83.0591 7.82621 83.0228C7.4958 82.9773 7.06871 83.0011 6.54493 83.0942C5.7179 83.2413 5.01157 83.4807 4.42593 83.8123C3.84784 84.1332 3.38228 84.5004 3.02923 84.9139C2.68537 85.3258 2.44913 85.7565 2.32051 86.206C2.19189 86.6554 2.16189 87.0731 2.23053 87.4591C2.31551 87.9369 2.43652 88.2709 2.59357 88.461C2.7598 88.6495 2.94859 88.7249 3.15994 88.6873C3.38048 88.6481 3.53067 88.5598 3.61051 88.4223C3.68871 88.2757 3.71229 88.1151 3.68124 87.9405C3.61587 87.5729 3.51416 87.3209 3.37611 87.1842C3.23806 87.0476 3.09572 86.9402 2.94909 86.862C3.07774 86.8392 3.2167 86.8476 3.36598 86.8874C3.52281 86.9164 3.67536 86.9746 3.82362 87.062C3.97024 87.1402 4.09798 87.2455 4.20683 87.3778C4.31568 87.5101 4.38644 87.6682 4.41913 87.8519C4.51718 88.4033 4.42123 88.8232 4.13127 89.1118C3.84887 89.3895 3.5147 89.5627 3.12876 89.6314C2.93578 89.6657 2.73382 89.6495 2.52288 89.5827C2.31029 89.5067 2.10496 89.3916 1.90687 89.2372C1.71634 89.072 1.54765 88.8698 1.40081 88.6304C1.25397 88.3911 1.15359 88.1198 1.09966 87.8166C0.995072 87.2285 1.04405 86.651 1.24658 86.0841C1.45831 85.5156 1.79634 84.991 2.26068 84.5102C2.7342 84.0279 3.32351 83.6102 4.02861 83.2573C4.7429 82.9028 5.54572 82.6463 6.43707 82.4877C6.5841 82.4616 6.79249 82.434 7.06224 82.405C7.34118 82.3744 7.63636 82.355 7.94777 82.3471C8.25919 82.3391 8.55927 82.3473 8.84801 82.3718C9.13513 82.3871 9.37038 82.4306 9.55376 82.5023C10.0639 82.7054 10.4763 83.0255 10.791 83.4625C11.1041 83.8903 11.3015 84.3339 11.3832 84.7933C11.4796 85.3355 11.4203 85.8816 11.2053 86.4318C10.9979 86.9711 10.7173 87.4192 10.3636 87.7759C10.0084 88.1235 9.62048 88.3679 9.20003 88.509C8.77794 88.6409 8.36933 88.742 7.9742 88.8123C7.88231 88.8286 7.77122 88.8437 7.64094 88.8574C7.51066 88.871 7.37874 88.8755 7.24519 88.8709C7.12083 88.8645 7.00484 88.852 6.89722 88.8332C6.79716 88.8036 6.72762 88.7591 6.68862 88.6997C6.6637 88.6662 6.64879 88.6356 6.64389 88.6081C6.62918 88.5254 6.6448 88.4799 6.69075 88.4718C6.86534 88.4407 7.05862 88.4348 7.27059 88.454C7.48092 88.464 7.67338 88.4534 7.84798 88.4224C8.19553 88.3511 8.54543 88.213 8.89767 88.0082C9.2591 87.8017 9.54018 87.5432 9.74089 87.2326C9.94161 86.922 10.049 86.5663 10.0631 86.1657C10.0863 85.7634 10.0612 85.3555 9.98764 84.942C9.93309 84.582 9.77747 84.2399 9.52076 83.9159C9.26406 83.5918 8.94528 83.3452 8.56442 83.1759ZM5.81752 84.3612C5.92514 84.3799 5.98221 84.4077 5.98875 84.4445C5.99529 84.4812 5.99376 84.5526 5.98417 84.6586C5.98213 84.7537 5.98224 84.8343 5.98449 84.9003C6.02494 85.2343 6.06049 85.5408 6.09114 85.8198C6.13098 86.0971 6.17 86.3698 6.2082 86.6379C6.24477 86.8969 6.28297 87.165 6.32281 87.4423C6.37183 87.718 6.42495 88.0166 6.48214 88.3382C6.60471 89.0274 6.74382 89.7563 6.89947 90.5249C7.05348 91.2844 7.21015 92.0054 7.36947 92.6881C7.44015 92.9788 7.56024 93.2277 7.72974 93.4345C7.89924 93.6414 8.13245 93.78 8.42937 93.8504L8.44898 93.9607C8.17923 93.9897 7.91489 94.0225 7.65596 94.0591C7.39539 94.0865 7.13646 94.123 6.87916 94.1688C6.64025 94.2113 6.40296 94.263 6.16731 94.3238C5.93003 94.3755 5.69816 94.431 5.4717 94.4902L5.45209 94.3799C5.65302 94.2304 5.80902 94.0415 5.92009 93.8132C6.03872 93.5741 6.07648 93.3067 6.03338 93.011C5.92756 92.3093 5.80601 91.5726 5.66874 90.8007C5.53146 90.0288 5.40073 89.2937 5.27653 88.5953L5.08778 87.5339C5.01751 87.1388 4.94428 86.7537 4.86809 86.3786C4.80108 86.0018 4.71049 85.5724 4.59631 85.0903C4.53871 84.873 4.4368 84.6731 4.29058 84.4905C4.75331 84.4272 5.09739 84.3897 5.32283 84.378C5.54664 84.3572 5.71154 84.3516 5.81752 84.3612Z" fill="white"/>
<path d="M20.497 91.8705C20.2937 91.8995 20.0687 91.9411 19.8218 91.9952C19.575 92.0492 19.3605 92.0987 19.1783 92.1435L19.1566 91.9911C19.2437 91.9409 19.3275 91.8677 19.4081 91.7714C19.4965 91.6645 19.5705 91.5549 19.6299 91.4427C19.6972 91.32 19.75 91.1946 19.7883 91.0666C19.8266 90.9386 19.8385 90.8237 19.824 90.7221C19.7647 90.2403 19.7081 89.81 19.654 89.4312C19.5986 89.0431 19.536 88.6042 19.4662 88.1145C19.3976 87.634 19.3165 87.1318 19.2229 86.6077C19.1385 86.0824 19.0436 85.5821 18.9381 85.1069C18.9012 84.9142 18.8048 84.7347 18.6491 84.5683C18.4934 84.402 18.2538 84.2759 17.9305 84.19L17.9008 84.0812C17.9945 84.0772 18.1206 84.0687 18.279 84.0555C18.4374 84.0423 18.601 84.0331 18.77 84.0279C18.9376 84.0134 19.1006 83.9995 19.259 83.9864C19.4174 83.9732 19.5428 83.96 19.6352 83.9468C19.7369 83.9323 19.9071 83.9033 20.146 83.8598C20.385 83.8163 20.6331 83.7715 20.8905 83.7253C21.1466 83.6699 21.4033 83.6192 21.6607 83.573C21.9168 83.5176 22.1557 83.4741 22.3775 83.4425C22.4883 83.4266 22.6045 83.4148 22.7259 83.4069C22.8553 83.3884 22.9721 83.3812 23.0764 83.3852C23.1886 83.3786 23.2836 83.3839 23.3615 83.4011C23.4394 83.4182 23.4816 83.4499 23.4882 83.4961C23.5172 83.6994 23.5541 83.8591 23.599 83.9753C23.6531 84.0901 23.6913 84.2261 23.7137 84.3832C23.7216 84.4386 23.7071 84.469 23.6702 84.4742C23.6147 84.4821 23.5692 84.4603 23.5336 84.4089C23.5058 84.3468 23.4643 84.2868 23.4089 84.2287C23.3006 84.131 23.1 84.0465 22.807 83.9751C22.514 83.9038 22.0533 83.913 21.425 84.0026C21.2402 84.029 21.0521 84.0652 20.8607 84.1114C20.6693 84.1576 20.404 84.2143 20.0648 84.2815C20.0423 84.3884 20.0351 84.5026 20.0429 84.624C20.0588 84.7349 20.066 84.8517 20.0647 84.9745C20.0936 85.3757 20.1345 85.7942 20.1872 86.2298C20.2478 86.6548 20.3071 87.0706 20.3652 87.4771C20.6239 87.4402 20.874 87.4092 21.1156 87.3842C21.3571 87.3592 21.598 87.3295 21.8382 87.2952C21.9214 87.2834 21.9999 87.2722 22.0738 87.2616C22.1557 87.2405 22.2382 87.224 22.3213 87.2122C22.5325 87.1726 22.7444 87.1047 22.9569 87.0084C23.1695 86.912 23.351 86.7306 23.5015 86.464L23.5708 86.4541C23.584 86.6125 23.5892 86.7485 23.5866 86.862C23.5839 86.9755 23.5951 87.12 23.6201 87.2956C23.6439 87.4619 23.661 87.582 23.6716 87.6559C23.6821 87.7298 23.7045 87.8539 23.7388 88.0282L23.6556 88.04C23.5065 87.8539 23.298 87.7469 23.0301 87.7192C22.7608 87.6822 22.5093 87.6709 22.2757 87.6854C21.9866 87.7078 21.685 87.7414 21.3709 87.7862C21.0567 87.831 20.7426 87.8758 20.4284 87.9206L20.4324 87.9484C20.5009 88.4288 20.5728 88.8664 20.648 89.2611C20.7324 89.6544 20.8181 90.09 20.9051 90.5678C20.9407 90.7513 21.0357 90.8886 21.1901 90.9797C21.3432 91.0616 21.5214 91.121 21.7247 91.158C21.9279 91.195 22.1418 91.2069 22.3662 91.1938C22.5998 91.1793 22.809 91.1589 22.9938 91.1325C23.2617 91.0943 23.5277 91.0422 23.7917 90.9762C24.0636 90.8997 24.2993 90.7671 24.4986 90.5784C24.7402 90.3554 24.9257 90.1356 25.0551 89.9192C25.1832 89.6935 25.2842 89.5754 25.3581 89.5649C25.4228 89.5556 25.4597 89.5834 25.4689 89.648C25.4782 89.7127 25.461 89.7906 25.4174 89.8816C25.3831 89.9714 25.3408 90.0717 25.2906 90.1826C25.2392 90.2842 25.1844 90.3957 25.1263 90.5171C25.0761 90.628 25.0444 90.7362 25.0312 90.8418C25.0259 90.9369 24.9922 91.0312 24.9301 91.1249C24.8773 91.2173 24.7077 91.2839 24.4213 91.3248L22.7442 91.5641C22.4671 91.6036 22.2361 91.6366 22.0513 91.6629C21.8665 91.6893 21.6955 91.7137 21.5385 91.7361C21.3801 91.7493 21.2223 91.7671 21.0652 91.7895C20.9082 91.8119 20.7188 91.8389 20.497 91.8705Z" fill="white"/>
<path d="M32.3099 82.284C32.681 82.2432 33.0367 82.1899 33.3769 82.1243C33.716 82.0493 34.0526 81.9935 34.3866 81.9567C34.6185 81.9311 34.905 81.9324 35.2462 81.9606C35.5873 81.9887 35.8851 82.0498 36.1396 82.1439C36.5425 82.3061 36.8463 82.5496 37.0511 82.8745C37.2641 83.189 37.3886 83.5087 37.4243 83.8334C37.4662 84.2137 37.4035 84.5821 37.2362 84.9386C37.0782 85.294 36.8481 85.5917 36.5458 85.8316C36.4664 85.8779 36.3875 85.9288 36.3092 85.9844C36.2297 86.0307 36.14 86.0688 36.04 86.0986C36.3283 86.4142 36.6449 86.7737 36.9898 87.177C37.343 87.5701 37.7075 87.9384 38.0834 88.2819C38.4685 88.6245 38.8563 88.9057 39.2468 89.1256C39.6362 89.3363 40.0211 89.4206 40.4014 89.3787C40.4849 89.3695 40.5679 89.3557 40.6504 89.3372C40.7328 89.3187 40.8205 89.3044 40.9132 89.2942C40.9596 89.2891 40.9849 89.3051 40.9889 89.3422C40.9941 89.3886 40.9574 89.4395 40.879 89.4951C40.8099 89.5497 40.7212 89.597 40.613 89.6371C40.5057 89.6865 40.3928 89.7271 40.2743 89.7589C40.165 89.7898 40.0732 89.8092 39.999 89.8174C39.3867 89.8849 38.8478 89.8081 38.3821 89.5871C37.9247 89.3558 37.4931 89.0606 37.0873 88.7015C36.6898 88.3322 36.3037 87.9381 35.9289 87.5193C35.5634 87.0994 35.1654 86.7254 34.7349 86.3973L34.1504 86.4616C34.0566 86.4626 33.9273 86.4815 33.7623 86.5185C33.6056 86.5451 33.4582 86.5708 33.3201 86.5954C33.3681 87.0314 33.4208 87.4669 33.4781 87.9019C33.5354 88.3369 33.6066 88.7704 33.6918 89.2023C33.74 89.4693 33.8222 89.6621 33.9386 89.7808C34.0539 89.8902 34.228 89.979 34.4609 90.0472L34.4701 90.1307C34.2557 90.1449 34.0413 90.1592 33.8269 90.1734C33.6208 90.1773 33.411 90.191 33.1976 90.2145C33.0121 90.235 32.7951 90.2683 32.5466 90.3144C32.3065 90.3503 32.0941 90.383 31.9096 90.4128L31.8988 90.3153C32.0669 90.2217 32.2268 90.0961 32.3785 89.9386C32.5384 89.7707 32.6164 89.5837 32.6125 89.3776C32.5676 88.8849 32.518 88.3926 32.4639 87.901C32.4097 87.4093 32.3556 86.9176 32.3014 86.4259C32.2472 85.9342 32.1817 85.425 32.1049 84.8982C32.0281 84.3714 31.9539 83.8679 31.8822 83.3875C31.8525 83.203 31.7862 83.0272 31.6832 82.8601C31.5793 82.6838 31.3718 82.547 31.0606 82.4498L31.0498 82.3524C31.2374 82.3505 31.4436 82.3466 31.6683 82.3406C31.892 82.3254 32.1058 82.3065 32.3099 82.284ZM33.014 83.3051C33.0137 83.5586 33.0233 83.8158 33.0426 84.0766C33.0712 84.3364 33.1004 84.6008 33.13 84.8698L33.268 86.1222C33.4257 86.1048 33.6112 86.0844 33.8246 86.0609C34.0369 86.0281 34.1988 86.0056 34.3101 85.9933C35.1636 85.8993 35.7261 85.6777 35.9975 85.3286C36.2781 84.9784 36.3755 84.4982 36.2895 83.8879C36.2804 83.6354 36.1869 83.3828 36.0088 83.1301C35.8297 82.8682 35.5877 82.6742 35.2827 82.5481C35.0756 82.4583 34.836 82.4142 34.5639 82.416C34.3011 82.4168 34.0537 82.43 33.8218 82.4555C33.6826 82.4709 33.5491 82.495 33.4213 82.5278C33.2925 82.5514 33.159 82.5755 33.0208 82.6001C32.9764 82.7083 32.9608 82.8227 32.9741 82.9433C32.9967 83.0629 33.01 83.1835 33.014 83.3051Z" fill="white"/>
<path d="M47.4804 80.7556C47.8527 80.7275 48.21 80.6864 48.5522 80.6325C48.8938 80.5692 49.232 80.525 49.5671 80.4996C49.7998 80.4821 50.0861 80.4932 50.426 80.533C50.766 80.5728 51.0616 80.6441 51.3127 80.7468C51.7097 80.9227 52.005 81.1765 52.1986 81.5082C52.4007 81.8299 52.5141 82.1536 52.5387 82.4793C52.5676 82.8609 52.4923 83.227 52.3128 83.5775C52.1427 83.9273 51.9025 84.2169 51.5923 84.4463C51.5113 84.4898 51.4307 84.538 51.3505 84.5909C51.2695 84.6344 51.1786 84.6694 51.0776 84.6957C51.3549 85.0211 51.659 85.3912 51.9899 85.8062C52.3293 86.2111 52.681 86.5916 53.0449 86.9479C53.4181 87.3035 53.796 87.5978 54.1787 87.831C54.5606 88.0548 54.9424 88.1523 55.324 88.1235C55.4077 88.1172 55.4911 88.1062 55.5742 88.0905C55.6573 88.0749 55.7453 88.0636 55.8384 88.0565C55.8849 88.053 55.9096 88.0699 55.9124 88.1071C55.9159 88.1536 55.8776 88.2033 55.7973 88.2562C55.7264 88.3084 55.6361 88.3526 55.5266 88.389C55.4177 88.4347 55.3035 88.4714 55.1839 88.4991C55.0736 88.5262 54.9812 88.5425 54.9068 88.5481C54.2925 88.5946 53.7565 88.4994 53.2987 88.2625C52.8495 88.0157 52.4283 87.7059 52.0351 87.3331C51.6505 86.9503 51.278 86.5432 50.9178 86.1118C50.567 85.6797 50.182 85.2923 49.763 84.9495L49.1766 84.9938C49.0829 84.9916 48.9529 85.0061 48.7868 85.0373C48.6293 85.0586 48.4811 85.0792 48.3422 85.099C48.3753 85.5364 48.413 85.9735 48.4553 86.4102C48.4977 86.8469 48.554 87.2826 48.6243 87.7172C48.6633 87.9857 48.7389 88.1812 48.8512 88.3038C48.9627 88.417 49.1336 88.5118 49.364 88.5879L49.3704 88.6717C49.1556 88.6786 48.9408 88.6854 48.7261 88.6923C48.5199 88.6892 48.3098 88.6957 48.0958 88.7119C47.9096 88.7259 47.6916 88.7518 47.4417 88.7894C47.2005 88.817 46.9871 88.8424 46.8017 88.8658L46.7943 88.7681C46.9655 88.6803 47.1296 88.5602 47.2866 88.408C47.4521 88.2457 47.5365 88.0615 47.5396 87.8553C47.5117 87.3614 47.479 86.8678 47.4418 86.3745C47.4045 85.8812 47.3672 85.388 47.3299 84.8947C47.2927 84.4015 47.2447 83.8903 47.186 83.3612C47.1273 82.8321 47.0703 82.3263 47.0151 81.8438C46.9917 81.6583 46.9315 81.4804 46.8344 81.3099C46.7365 81.1301 46.5338 80.9863 46.2261 80.8785L46.2188 80.7808C46.4063 80.7853 46.6125 80.7884 46.8372 80.7902C47.0613 80.7826 47.2757 80.7711 47.4804 80.7556ZM48.1491 81.8002C48.1401 82.0536 48.1409 82.3109 48.1512 82.5722C48.1709 82.8328 48.191 83.0981 48.2114 83.368L48.3063 84.6244C48.4645 84.6124 48.6507 84.5984 48.8647 84.5822C49.0781 84.5567 49.2406 84.5397 49.3523 84.5313C50.2085 84.4666 50.7782 84.2644 51.0614 83.9248C51.354 83.5844 51.4677 83.1078 51.4027 82.495C51.4023 82.2423 51.3175 81.9866 51.1481 81.728C50.9781 81.46 50.7429 81.2579 50.4424 81.1214C50.2386 81.0245 50.0006 80.9723 49.7286 80.9648C49.4659 80.9566 49.2182 80.9612 48.9855 80.9788C48.8459 80.9894 48.7117 81.0089 48.5828 81.0373C48.4532 81.0565 48.319 81.076 48.1801 81.0959C48.132 81.2025 48.1125 81.3162 48.1216 81.4372C48.1401 81.5575 48.1492 81.6785 48.1491 81.8002Z" fill="white"/>
<path d="M66.7942 80.6302L69.7515 86.4354C69.986 86.9115 70.3398 87.2239 70.813 87.3726L70.8158 87.4425C70.3939 87.4038 69.9778 87.3929 69.5674 87.4098C69.1198 87.4283 68.6827 87.4743 68.256 87.5479L68.2537 87.4919C68.2499 87.3987 68.3018 87.2985 68.4095 87.1913C68.5265 87.0837 68.5823 86.9646 68.5769 86.8341C68.5712 86.6942 68.5333 86.5697 68.4635 86.4604L67.5098 84.3979C67.2666 84.3892 67.0189 84.3854 66.7667 84.3865C66.5142 84.3782 66.262 84.3792 66.0102 84.3896C65.7491 84.4003 65.4884 84.4204 65.228 84.4498C64.9673 84.4699 64.7114 84.4944 64.4604 84.5235L63.5471 86.845C63.5133 86.9304 63.4839 87.0111 63.459 87.0868C63.4337 87.1532 63.4226 87.2238 63.4257 87.2984C63.4306 87.4196 63.506 87.5473 63.6516 87.6814L63.6539 87.7373C63.4946 87.7252 63.3402 87.7176 63.1906 87.7144C63.041 87.7112 62.8869 87.7129 62.7284 87.7194C62.5605 87.7263 62.3929 87.7379 62.2254 87.7541C62.0579 87.7704 61.8953 87.7911 61.7375 87.8162L61.8052 87.7574C62.0632 87.672 62.2912 87.5366 62.489 87.3509C62.6962 87.1649 62.8597 86.9387 62.9795 86.6722L65.4851 80.8242C65.5007 80.7488 65.5077 80.6925 65.5062 80.6552C65.5078 80.4683 65.416 80.2806 65.2308 80.092C65.0545 79.8938 64.8469 79.7295 64.608 79.5992L64.5771 79.5304C64.7547 79.5325 64.9742 79.5328 65.2357 79.5313C65.4972 79.5299 65.7259 79.5252 65.9217 79.5171L66.2295 79.5044L66.7942 80.6302ZM67.253 83.9461L67.2507 83.8901L65.9483 81.1834L65.9203 81.1846L64.7189 83.9944L64.7212 84.0503C64.9267 84.0512 65.1322 84.0521 65.3378 84.053C65.5523 84.0441 65.7668 84.0353 65.9812 84.0265C66.1864 84.018 66.3962 84.0094 66.6107 84.0006C66.8248 83.9824 67.0389 83.9643 67.253 83.9461Z" fill="white"/>
<path d="M83.3926 79.0432C83.5328 79.0609 83.6636 79.0787 83.785 79.0965C83.9065 79.1143 84.0325 79.1228 84.1632 79.1219C84.3592 79.1206 84.5552 79.1145 84.7511 79.1039C84.9564 79.0931 85.1569 79.0777 85.3528 79.0577L85.3533 79.1277C85.1206 79.232 84.9631 79.3964 84.8806 79.621C84.8075 79.8455 84.767 80.0651 84.7592 80.2798C84.7329 80.5414 84.7161 80.8121 84.7087 81.0922C84.7106 81.3722 84.7126 81.6569 84.7146 81.9462L84.7236 83.2622C84.7258 83.5888 84.7238 83.9668 84.7174 84.3962C84.7109 84.8163 84.7091 85.2316 84.7119 85.6423C84.7133 85.8476 84.7147 86.0483 84.7161 86.2443C84.7267 86.4309 84.7372 86.6035 84.7476 86.7621C84.7587 87.0233 84.7646 87.196 84.7652 87.28C84.7658 87.3733 84.7334 87.4202 84.6681 87.4206C84.6215 87.4209 84.5088 87.3237 84.3301 87.1289L78.0714 80.9277L78.0014 80.9282C77.9837 81.059 77.9753 81.1944 77.9762 81.3344C77.9771 81.465 77.978 81.5957 77.9789 81.7264C77.9808 81.997 77.9873 82.2677 77.9985 82.5382C78.0097 82.8088 78.0161 83.0655 78.0178 83.3081C78.0211 83.7935 78.0291 84.2834 78.0418 84.778C78.0639 85.2725 78.0859 85.7624 78.1079 86.2476C78.128 86.4528 78.1899 86.639 78.2938 86.8063C78.3975 86.9643 78.5664 87.0891 78.8003 87.1809L78.8009 87.2649C78.5861 87.2477 78.3714 87.2351 78.1566 87.2273C77.9512 87.2193 77.7412 87.2161 77.5266 87.2176C77.3306 87.2189 77.1999 87.2245 77.1347 87.2343C77.0693 87.2347 76.9434 87.2449 76.7569 87.2649L76.7563 87.1809C76.9331 87.105 77.0817 86.992 77.202 86.8418C77.3316 86.6916 77.3957 86.5138 77.3943 86.3085C77.4096 85.8137 77.4155 85.319 77.4121 84.8243C77.4088 84.3297 77.4054 83.835 77.402 83.3404C77.3997 83.0137 77.3974 82.6777 77.3951 82.3324C77.402 81.9777 77.4042 81.6276 77.4019 81.2823C77.4006 81.105 77.3995 80.9323 77.3983 80.7643C77.3971 80.587 77.3913 80.419 77.3808 80.2604L77.3804 80.1904C77.3605 80.0132 77.3033 79.8363 77.2087 79.6596C77.1142 79.4829 76.9357 79.3161 76.6733 79.1593L76.6447 79.0754C76.8034 79.0837 76.9855 79.0964 77.191 79.1137C77.4058 79.1309 77.6018 79.1389 77.7792 79.1377L84.0388 85.4789L84.1088 85.4784C84.1156 85.1144 84.1178 84.7503 84.1153 84.3863C84.1128 84.0224 84.1103 83.6537 84.1077 83.2804C84.1043 82.7857 84.0915 82.2771 84.0692 81.7546C84.0563 81.232 84.0342 80.7235 84.0028 80.229C83.9922 80.0424 83.9582 79.8513 83.9009 79.6557C83.8435 79.4601 83.6743 79.2839 83.3932 79.1272L83.3926 79.0432Z" fill="white"/>
<path d="M108.199 87.9373C107.714 87.9112 107.198 87.8601 106.651 87.7839C106.103 87.7078 105.587 87.6567 105.103 87.6306C104.86 87.6176 104.575 87.6116 104.248 87.6127C103.931 87.605 103.655 87.6042 103.421 87.6103L103.428 87.4845C103.543 87.4346 103.664 87.3616 103.79 87.2656C103.917 87.1696 104.035 87.0591 104.145 86.9342C104.263 86.8097 104.359 86.6747 104.433 86.5291C104.515 86.3839 104.561 86.2368 104.569 86.0877C104.625 85.3804 104.666 84.7143 104.69 84.0893C104.724 83.4556 104.76 82.7846 104.798 82.0763C104.817 81.7221 104.834 81.4052 104.849 81.1256C104.864 80.846 104.879 80.5711 104.894 80.3008C104.909 80.0212 104.919 79.7414 104.925 79.4613C104.931 79.1719 104.934 78.8542 104.934 78.5084C104.927 78.2837 104.874 78.0659 104.773 77.8548C105.154 77.894 105.456 77.9289 105.679 77.9596C105.901 77.9902 106.068 78.0226 106.178 78.0565C106.289 78.0812 106.358 78.1082 106.384 78.1377C106.42 78.1584 106.438 78.178 106.437 78.1966C106.435 78.2339 106.417 78.3031 106.384 78.4041C106.36 78.4963 106.342 78.5747 106.329 78.6395C106.292 78.974 106.257 79.2805 106.223 79.5591C106.199 79.8382 106.175 80.1127 106.151 80.3824C106.128 80.6429 106.104 80.9127 106.08 81.1918C106.065 81.4714 106.048 81.7743 106.031 82.1005C105.993 82.7995 105.965 83.4989 105.946 84.1989C105.927 84.8989 105.917 85.5994 105.917 86.3004C105.914 86.3657 105.919 86.4454 105.932 86.5396C106.2 86.769 106.584 86.9345 107.083 87.0361C107.583 87.1284 108.206 87.1946 108.951 87.2347C109.576 87.2682 110.172 87.2162 110.74 87.0785C111.309 86.9408 111.807 86.7152 112.235 86.4017C112.663 86.079 113.013 85.6631 113.283 85.1542C113.554 84.6454 113.708 84.0368 113.746 83.3285C113.788 82.5549 113.689 81.7878 113.449 81.0272C113.219 80.2671 112.873 79.5755 112.411 78.9525C111.949 78.3294 111.378 77.8174 110.699 77.4163C110.02 77.0153 109.26 76.7922 108.422 76.7471C107.583 76.702 106.794 76.7671 106.056 76.9424C105.318 77.1083 104.674 77.3448 104.125 77.6517C103.576 77.9587 103.136 78.3089 102.807 78.7025C102.486 79.0965 102.316 79.4892 102.295 79.8807C102.268 80.3746 102.31 80.732 102.419 80.9529C102.539 81.165 102.706 81.2767 102.92 81.2883C103.144 81.3003 103.31 81.2485 103.419 81.1328C103.528 81.0079 103.588 80.8569 103.598 80.6798C103.618 80.2977 103.577 80.0244 103.473 79.8599C103.37 79.6955 103.256 79.5631 103.13 79.4629C103.261 79.4699 103.394 79.5098 103.53 79.5826C103.676 79.6465 103.812 79.7379 103.936 79.8568C104.061 79.9663 104.162 80.0979 104.237 80.2515C104.313 80.4051 104.346 80.5752 104.336 80.7616C104.306 81.3207 104.117 81.7078 103.769 81.9228C103.431 82.1289 103.066 82.2215 102.675 82.2004C102.479 82.1899 102.285 82.1421 102.093 82.057C101.902 81.9626 101.727 81.8317 101.568 81.6642C101.418 81.4879 101.299 81.2806 101.209 81.042C101.119 80.8035 101.082 80.5305 101.098 80.2229C101.131 79.6172 101.362 79.0501 101.793 78.5218C102.223 77.9934 102.78 77.5374 103.465 77.1536C104.149 76.7697 104.926 76.4797 105.797 76.2835C106.677 76.0785 107.574 76.0005 108.487 76.0496C109.522 76.1052 110.463 76.3288 111.311 76.7202C112.16 77.1023 112.881 77.5944 113.475 78.1965C114.069 78.7893 114.519 79.4677 114.824 80.2318C115.138 80.9872 115.274 81.7656 115.231 82.5671C115.181 83.4897 114.974 84.2965 114.61 84.9872C114.255 85.6785 113.771 86.2507 113.158 86.7037C112.545 87.1568 111.817 87.4869 110.974 87.6939C110.14 87.9014 109.215 87.9826 108.199 87.9373Z" fill="white"/>
<path d="M126.558 82.2786L128.708 88.4288C128.877 88.9321 129.185 89.2892 129.634 89.5001L129.628 89.5698C129.215 89.4747 128.804 89.408 128.395 89.3696C127.949 89.3276 127.51 89.3145 127.077 89.3301L127.082 89.2743C127.091 89.1814 127.156 89.089 127.277 88.9973C127.407 88.9064 127.479 88.796 127.491 88.6659C127.504 88.5265 127.483 88.398 127.429 88.2804L126.761 86.1084C126.521 86.0671 126.276 86.03 126.026 85.9971C125.777 85.9549 125.527 85.9221 125.276 85.8985C125.016 85.874 124.755 85.8589 124.493 85.853C124.232 85.8378 123.975 85.8278 123.722 85.8228L122.505 88.0004C122.46 88.0806 122.42 88.1565 122.385 88.2282C122.351 88.2906 122.331 88.359 122.324 88.4334C122.313 88.5542 122.37 88.6908 122.496 88.8433L122.491 88.899C122.335 88.8656 122.183 88.8373 122.035 88.814C121.887 88.7907 121.734 88.7717 121.576 88.7568C121.409 88.7411 121.241 88.73 121.073 88.7236C120.905 88.7172 120.741 88.7158 120.582 88.7196L120.656 88.6704C120.924 88.6205 121.168 88.5169 121.389 88.3595C121.619 88.203 121.812 88.0008 121.966 87.7529L125.235 82.2948C125.261 82.2222 125.275 82.1674 125.279 82.1302C125.306 81.9452 125.24 81.7469 125.082 81.5351C124.934 81.315 124.75 81.1243 124.531 80.9631L124.509 80.8908C124.685 80.9166 124.903 80.9465 125.162 80.9802C125.421 81.014 125.648 81.04 125.844 81.0583L126.15 81.0872L126.558 82.2786ZM126.567 85.6261L126.573 85.5704L125.646 82.7131L125.618 82.7105L124.05 85.3332L124.044 85.389C124.248 85.4175 124.452 85.446 124.655 85.4745C124.869 85.4946 125.083 85.5147 125.296 85.5348C125.501 85.554 125.71 85.5736 125.923 85.5937C126.138 85.6045 126.353 85.6153 126.567 85.6261Z" fill="white"/>
<path d="M136.713 90.3298C136.518 90.3063 136.318 90.2869 136.113 90.2716C135.918 90.2574 135.731 90.249 135.552 90.2463L135.563 90.1629C135.748 90.11 135.909 90.0167 136.048 89.8829C136.195 89.7503 136.286 89.5826 136.32 89.3799C136.388 88.8899 136.452 88.3994 136.511 87.9083C136.57 87.4171 136.63 86.926 136.689 86.4349C136.747 85.9531 136.799 85.447 136.844 84.9166C136.898 84.3873 136.941 83.88 136.971 83.3948C136.985 83.1991 136.962 83.0036 136.901 82.8082C136.85 82.6047 136.7 82.4033 136.452 82.2041L136.458 82.1485C136.641 82.1894 136.834 82.2267 137.037 82.2606C137.249 82.2956 137.452 82.3248 137.647 82.3482C137.842 82.3717 138.037 82.3905 138.232 82.4047C138.439 82.4108 138.639 82.4209 138.835 82.4351L138.828 82.4907C138.585 82.5647 138.412 82.713 138.309 82.9358C138.209 83.1492 138.136 83.3568 138.093 83.5584C138.034 83.8145 137.983 84.0856 137.939 84.3717C137.905 84.6497 137.871 84.9323 137.837 85.2196L137.679 86.5261C137.621 87.008 137.572 87.4956 137.531 87.9889C137.49 88.4822 137.45 88.971 137.411 89.455C137.405 89.6611 137.442 89.8537 137.524 90.0328C137.607 90.2026 137.755 90.3426 137.967 90.4528L137.957 90.5362C137.746 90.492 137.535 90.4524 137.323 90.4174C137.12 90.3836 136.917 90.3544 136.713 90.3298Z" fill="white"/>
<path d="M145.845 83.4698C146.215 83.5242 146.572 83.5627 146.918 83.5854C147.265 83.5988 147.605 83.63 147.937 83.6789C148.168 83.7129 148.445 83.7868 148.768 83.9004C149.091 84.014 149.363 84.1485 149.586 84.3039C149.934 84.5628 150.167 84.8753 150.283 85.2415C150.409 85.5997 150.448 85.9405 150.401 86.2636C150.345 86.6422 150.191 86.9827 149.939 87.2852C149.696 87.5891 149.398 87.8188 149.045 87.9743C148.956 87.999 148.867 88.0283 148.777 88.0622C148.689 88.0869 148.592 88.101 148.488 88.1045C148.687 88.4829 148.902 88.9108 149.134 89.3883C149.376 89.858 149.635 90.3066 149.912 90.7341C150.198 91.163 150.502 91.5333 150.824 91.8449C151.147 92.1473 151.498 92.3263 151.877 92.3821C151.96 92.3944 152.044 92.402 152.128 92.405C152.213 92.408 152.301 92.4163 152.393 92.4299C152.439 92.4367 152.46 92.4586 152.454 92.4955C152.448 92.5417 152.399 92.5817 152.309 92.6157C152.229 92.651 152.131 92.6743 152.016 92.6857C151.9 92.7063 151.78 92.717 151.657 92.7177C151.544 92.7199 151.45 92.7155 151.376 92.7046C150.767 92.6148 150.265 92.4041 149.87 92.0724C149.487 91.7328 149.144 91.3379 148.842 90.8878C148.551 90.4298 148.277 89.9508 148.021 89.4508C147.774 88.9521 147.483 88.4895 147.15 88.063L146.568 87.9773C146.477 87.9544 146.347 87.94 146.178 87.934C146.02 87.9201 145.871 87.9075 145.731 87.8964C145.667 88.3304 145.608 88.765 145.553 89.2004C145.498 89.6357 145.457 90.0731 145.43 90.5125C145.409 90.783 145.44 90.9904 145.523 91.1346C145.607 91.2696 145.753 91.3996 145.961 91.5246L145.948 91.6077C145.737 91.5672 145.526 91.5266 145.315 91.4861C145.115 91.4377 144.908 91.3979 144.696 91.3666C144.511 91.3394 144.293 91.3166 144.041 91.2984C143.8 91.2722 143.586 91.2502 143.4 91.2322L143.414 91.1353C143.6 91.0872 143.787 91.0062 143.974 90.8922C144.171 90.7703 144.294 90.6092 144.342 90.4087C144.423 89.9207 144.5 89.432 144.572 88.9426C144.644 88.4532 144.716 87.9639 144.788 87.4745C144.861 86.9851 144.926 86.4759 144.985 85.9468C145.044 85.4178 145.1 84.9118 145.152 84.429C145.17 84.2429 145.151 84.0561 145.093 83.8684C145.037 83.6715 144.871 83.4866 144.595 83.3138L144.609 83.2169C144.791 83.2625 144.991 83.3109 145.21 83.3621C145.431 83.4039 145.642 83.4399 145.845 83.4698ZM146.268 84.6358C146.204 84.8811 146.148 85.1323 146.1 85.3894C146.062 85.648 146.023 85.9111 145.984 86.1789L145.8 87.4255C145.957 87.4486 146.142 87.4758 146.354 87.5071C146.568 87.5291 146.73 87.5483 146.841 87.5647C147.691 87.6898 148.291 87.6179 148.642 87.3488C149.002 87.0811 149.218 86.6412 149.289 86.0291C149.344 85.7825 149.318 85.5144 149.21 85.2249C149.103 84.9261 148.918 84.6772 148.654 84.478C148.477 84.3386 148.256 84.2354 147.993 84.1682C147.738 84.1024 147.495 84.0525 147.265 84.0185C147.126 83.9981 146.991 83.9876 146.859 83.987C146.728 83.9772 146.593 83.9667 146.453 83.9555C146.383 84.049 146.339 84.1557 146.321 84.2757C146.313 84.3971 146.295 84.5172 146.268 84.6358Z" fill="white"/>
<path d="M166.836 86.8401C167.038 86.8768 167.219 86.8955 167.38 86.8963C167.551 86.8987 167.748 86.9107 167.971 86.9323L167.849 86.9812C167.506 87.0423 167.187 87.1789 166.892 87.3911C166.607 87.6049 166.351 87.8146 166.124 88.02C165.682 88.4142 165.235 88.8122 164.783 89.2139C164.331 89.6157 163.893 90.0153 163.47 90.4128C163.436 90.5489 163.406 90.6858 163.381 90.8236C163.356 90.9614 163.331 91.0991 163.306 91.2369C163.18 91.9348 163.08 92.6423 163.007 93.3595C162.979 93.5632 163.002 93.7522 163.074 93.9267C163.156 94.1028 163.299 94.2567 163.503 94.3886L163.488 94.4712C163.278 94.4237 163.069 94.3762 162.859 94.3287C162.661 94.2737 162.456 94.2271 162.244 94.1887C162.052 94.1538 161.857 94.128 161.661 94.1114C161.466 94.0856 161.281 94.0614 161.105 94.039L161.12 93.9563C161.308 93.9145 161.475 93.8309 161.621 93.7057C161.776 93.582 161.872 93.4192 161.908 93.2172C161.999 92.7689 162.084 92.3289 162.162 91.8973C162.251 91.4581 162.337 91.0135 162.418 90.5636C162.157 90.0135 161.906 89.4414 161.662 88.8471C161.43 88.2453 161.173 87.6723 160.893 87.1282C160.773 86.8978 160.634 86.6449 160.475 86.3695C160.326 86.0958 160.07 85.8312 159.709 85.5759L159.655 85.4808C159.854 85.5358 160.061 85.5925 160.279 85.6508C160.506 85.7017 160.726 85.7462 160.937 85.7845C161.139 85.8212 161.343 85.8486 161.548 85.8669C161.755 85.876 161.961 85.8943 162.164 85.9218L162.094 85.9944C162.043 86.0136 161.988 86.0604 161.927 86.1347C161.866 86.2091 161.831 86.2692 161.823 86.3151C161.789 86.4512 161.818 86.6273 161.912 86.8435C162.006 87.0597 162.096 87.2658 162.184 87.462C162.343 87.8417 162.5 88.2307 162.655 88.6288C162.822 89.0194 163.009 89.3996 163.217 89.7693C163.547 89.5162 163.876 89.2485 164.202 88.9662C164.539 88.6764 164.854 88.3778 165.147 88.0705C165.275 87.9419 165.427 87.7799 165.605 87.5845C165.783 87.3891 165.885 87.2179 165.912 87.0709C165.937 86.9332 165.918 86.8017 165.855 86.6765L165.842 86.5889C166.015 86.6297 166.174 86.6726 166.317 86.7176C166.461 86.7627 166.634 86.8035 166.836 86.8401Z" fill="white"/>
</svg>
